<?xml version="1.0" encoding="utf-8"?>
<!-- Generator: Adobe Illustrator 25.0.0, SVG Export Plug-In . SVG Version: 6.00 Build 0)  -->
<svg version="1.1" id="Layer_1" xmlns="http://www.w3.org/2000/svg" xmlns:xlink="http://www.w3.org/1999/xlink" x="0px" y="0px"
	 viewBox="0 0 860.3 286.6" style="enable-background:new 0 0 860.3 286.6;" xml:space="preserve">
<style type="text/css">
	.st0{opacity:0.77;fill:#EBEBEB;stroke:#000000;stroke-width:0.89;enable-background:new    ;}
	.st1{opacity:0.77;fill:#A8C6FE;stroke:#000000;stroke-width:0.89;enable-background:new    ;}
	.st2{fill-opacity:0;stroke:#000000;stroke-width:0.89;stroke-opacity:0.77;}
	.st3{fill:none;stroke:#000000;stroke-width:0.445;stroke-opacity:0.77;}
	.st4{font-family:'TimesNewRomanPSMT';}
	.st5{font-size:13.6737px;}
	.st6{font-size:12px;}
</style>
<g transform="translate(285,0) scale(1)">
	<rect id="_x30__x5F_0" x="-266" y="95.6" class="st0" width="48" height="48"/>
	<rect id="_x30__x5F_1" x="-258" y="103.6" class="st1" width="48" height="48"/>
	<rect id="_x30__x5F_2" x="-250" y="111.6" class="st0" width="48" height="48"/>
	<rect id="_x31__x5F_0" x="-162" y="75.6" class="st0" width="48" height="48"/>
	<rect id="_x31__x5F_1" x="-154" y="83.6" class="st1" width="48" height="48"/>
	<rect id="_x31__x5F_2" x="-146" y="91.6" class="st0" width="48" height="48"/>
	<rect id="_x31__x5F_3" x="-138" y="99.6" class="st1" width="48" height="48"/>
	<rect id="_x31__x5F_4" x="-130" y="107.6" class="st0" width="48" height="48"/>
	<rect id="_x31__x5F_5" x="-122" y="115.6" class="st1" width="48" height="48"/>
	<rect id="_x31__x5F_6" x="-114" y="123.6" class="st0" width="48" height="48"/>
	<rect id="_x31__x5F_7" x="-106" y="131.6" class="st1" width="48" height="48"/>
	<rect id="_x32__x5F_0" x="-48" y="75.6" class="st0" width="48" height="48"/>
	<rect id="_x32__x5F_1" x="-40" y="83.6" class="st1" width="48" height="48"/>
	<rect id="_x32__x5F_2" x="-32" y="91.6" class="st0" width="48" height="48"/>
	<rect id="_x32__x5F_3" x="-24" y="99.6" class="st1" width="48" height="48"/>
	<rect id="_x32__x5F_4" x="-16" y="107.6" class="st0" width="48" height="48"/>
	<rect id="_x32__x5F_5" x="-8" y="115.6" class="st1" width="48" height="48"/>
	<rect id="_x32__x5F_6" x="0" y="123.6" class="st0" width="48" height="48"/>
	<rect id="_x32__x5F_7" x="8" y="131.6" class="st1" width="48" height="48"/>
	<rect id="_x33__x5F_0" x="36" y="55.6" class="st0" width="24" height="24"/>
	<rect id="_x33__x5F_1" x="44" y="63.6" class="st1" width="24" height="24"/>
	<rect id="_x33__x5F_2" x="52" y="71.6" class="st0" width="24" height="24"/>
	<rect id="_x33__x5F_3" x="60" y="79.6" class="st1" width="24" height="24"/>
	<rect id="_x33__x5F_4" x="68" y="87.6" class="st0" width="24" height="24"/>
	<rect id="_x33__x5F_5" x="76" y="95.6" class="st1" width="24" height="24"/>
	<rect id="_x33__x5F_6" x="84" y="103.6" class="st0" width="24" height="24"/>
	<rect id="_x33__x5F_7" x="92" y="111.6" class="st1" width="24" height="24"/>
	<rect id="_x33__x5F_8" x="100" y="119.6" class="st0" width="24" height="24"/>
	<rect id="_x33__x5F_9" x="108" y="127.6" class="st1" width="24" height="24"/>
	<rect id="_x33__x5F_10" x="116" y="135.6" class="st0" width="24" height="24"/>
	<rect id="_x33__x5F_11" x="124" y="143.6" class="st1" width="24" height="24"/>
	<rect id="_x33__x5F_12" x="132" y="151.6" class="st0" width="24" height="24"/>
	<rect id="_x33__x5F_13" x="140" y="159.6" class="st1" width="24" height="24"/>
	<rect id="_x33__x5F_14" x="148" y="167.6" class="st0" width="24" height="24"/>
	<rect id="_x33__x5F_15" x="156" y="175.6" class="st1" width="24" height="24"/>
	<rect id="_x34__x5F_0" x="160" y="61.6" class="st0" width="12" height="12"/>
	<rect id="_x34__x5F_1" x="168" y="69.6" class="st1" width="12" height="12"/>
	<rect id="_x34__x5F_2" x="176" y="77.6" class="st0" width="12" height="12"/>
	<rect id="_x34__x5F_3" x="184" y="85.6" class="st1" width="12" height="12"/>
	<rect id="_x34__x5F_4" x="192" y="93.6" class="st0" width="12" height="12"/>
	<rect id="_x34__x5F_5" x="200" y="101.6" class="st1" width="12" height="12"/>
	<rect id="_x34__x5F_6" x="208" y="109.6" class="st0" width="12" height="12"/>
	<rect id="_x34__x5F_7" x="216" y="117.6" class="st1" width="12" height="12"/>
	<rect id="_x34__x5F_8" x="224" y="125.6" class="st0" width="12" height="12"/>
	<rect id="_x34__x5F_9" x="232" y="133.6" class="st1" width="12" height="12"/>
	<rect id="_x34__x5F_10" x="240" y="141.6" class="st0" width="12" height="12"/>
	<rect id="_x34__x5F_11" x="248" y="149.6" class="st1" width="12" height="12"/>
	<rect id="_x34__x5F_12" x="256" y="157.6" class="st0" width="12" height="12"/>
	<rect id="_x34__x5F_13" x="264" y="165.6" class="st1" width="12" height="12"/>
	<rect id="_x34__x5F_14" x="272" y="173.6" class="st0" width="12" height="12"/>
	<rect id="_x34__x5F_15" x="280" y="181.6" class="st1" width="12" height="12"/>
	<rect id="conv_0" x="-216.2" y="116.3" class="st2" width="8" height="8"/>
	<rect id="conv_1" x="-75.3" y="156.6" class="st2" width="8" height="8"/>
	<rect id="conv_2" x="28.8" y="163.9" class="st2" width="8" height="8"/>
	<rect id="conv_3" x="161.3" y="187.1" class="st2" width="8" height="8"/>
	<line id="conv_0_1_" class="st3" x1="-208.2" y1="124.3" x2="-65.4" y2="137.3"/>
	<line id="conv_0_2_" class="st3" x1="-208.2" y1="116.3" x2="-65.4" y2="137.3"/>
	<line id="conv_1_1_" class="st3" x1="-67.3" y1="164.6" x2="44.8" y2="161.5"/>
	<line id="conv_1_2_" class="st3" x1="-67.3" y1="156.6" x2="44.8" y2="161.5"/>
	<line id="conv_2_1_" class="st3" x1="36.8" y1="171.9" x2="168.5" y2="195"/>
	<line id="conv_2_2_" class="st3" x1="36.8" y1="163.9" x2="168.5" y2="195"/>
	<line id="conv_3_1_" class="st3" x1="169.3" y1="195.1" x2="284" y2="190.2"/>
	<line id="conv_3_2_" class="st3" x1="169.3" y1="187.1" x2="284" y2="190.2"/>
	<polygon id="fc_0" class="st1" points="302,37.1 312,37.1 493.1,218.1 483.1,218.1 	"/>
	<polygon id="fc_1" class="st1" points="495.1,125.1 505.1,125.1 510,130.1 500,130.1 	"/>
	<line id="fc_0_1_" class="st3" x1="292" y1="193.6" x2="483.1" y2="218.1"/>
	<line id="fc_0_2_" class="st3" x1="172" y1="61.6" x2="302" y2="37.1"/>
	<line id="fc_1_1_" class="st3" x1="493.1" y1="218.1" x2="500" y2="130.1"/>
	<line id="fc_1_2_" class="st3" x1="312" y1="37.1" x2="495.1" y2="125.1"/>
</g>
<text transform="matrix(1 0 0 1 23.2 81.6248)" class="st4 st5">48×48×3</text>
<text transform="matrix(1 0 0 1 117.4902 61.6246)" class="st4 st5">48×48×32</text>
<text transform="matrix(1 0 0 1 227.0409 61.7747)" class="st4 st5">48×48×32</text>
<text transform="matrix(1 0 0 1 301.0405 39.1149)" class="st4 st5">24×24×64</text>
<text transform="matrix(1 0 0 1 413.0402 45.3697)" class="st4 st5">12×12×64</text>
<text transform="matrix(1 0 0 1 577.0402 23.6444)" class="st4 st5">1024</text>
<text transform="matrix(1 0 0 1 806.8874 135.6007)" class="st4 st5">7</text>
<text transform="matrix(1 0 0 1 90.6389 155.6248)"><tspan x="0" y="0" class="st4 st6">Conv 3×3</tspan><tspan x="0" y="14.4" class="st4 st6">BN</tspan><tspan x="0" y="28.8" class="st4 st6">Dropout</tspan></text>
<text transform="matrix(1 0 0 1 233.9097 187.067)"><tspan x="0" y="0" class="st4 st6">Conv 3×3</tspan><tspan x="0" y="14.4" class="st4 st6">BN</tspan><tspan x="0" y="28.8" class="st4 st6">MP 2×2</tspan><tspan x="0" y="43.2" class="st4 st6">Dropout</tspan></text>
<text transform="matrix(1 0 0 1 361.4841 205.8792)"><tspan x="0" y="0" class="st4 st6">Conv 3×3</tspan><tspan x="0" y="14.4" class="st4 st6">BN</tspan><tspan x="0" y="28.8" class="st4 st6">MP 2×2</tspan><tspan x="0" y="43.2" class="st4 st6">Dropout</tspan></text>
<text transform="matrix(1 0 0 1 501.0404 212.3231)"><tspan x="0" y="0" class="st4 st6">Conv 3×3</tspan><tspan x="0" y="14.4" class="st4 st6">BN</tspan><tspan x="0" y="28.8" class="st4 st6">MP 2×2</tspan><tspan x="0" y="43.2" class="st4 st6">Dropout</tspan></text>
<text transform="matrix(1 0 0 1 651.3621 226.8525)"><tspan x="0" y="0" class="st4 st6">Flatten</tspan><tspan x="0" y="14.4" class="st4 st6">FC</tspan><tspan x="0" y="28.8" class="st4 st6">Dropout</tspan><tspan x="0" y="43.2" class="st4 st6">BN</tspan></text>
<text transform="matrix(1 0 0 1 792.5333 177.6252)" class="st4 st6">FC-Softmax</text>
</svg>
