<?xml version="1.0" encoding="utf-8"?>
<!-- Generator: Adobe Illustrator 25.0.0, SVG Export Plug-In . SVG Version: 6.00 Build 0)  -->
<svg version="1.1" id="Layer_1" xmlns="http://www.w3.org/2000/svg" xmlns:xlink="http://www.w3.org/1999/xlink" x="0px" y="0px"
	 viewBox="0 0 2536 1415.3" style="enable-background:new 0 0 2536 1415.3;" xml:space="preserve">
<style type="text/css">
	.st0{font-family:'TimesNewRomanPSMT';}
	.st1{font-size:57.4293px;}
	.st2{letter-spacing:107;}
	.st3{letter-spacing:156;}
	.st4{letter-spacing:37;}
</style>
<text transform="matrix(1 0 0 1 75.5433 425.3252)" class="st0 st1">     (a) ResNet50 - Fear (correct)</text>
<text transform="matrix(1 0 0 1 813.8433 425.3252)" class="st0 st1 st2"> </text>
<text transform="matrix(1 0 0 1 936.9433 425.3252)" class="st0 st1 st3">   </text>
<text transform="matrix(1 0 0 1 1453.8434 425.3252)" class="st0 st1">         (b) VGG16 - Fear (incorrect: Sad)</text>
<text transform="matrix(1 0 0 1 75.5433 907.7252)" class="st0 st1">     (c) ResNet50 - Neutral (correct)</text>
<text transform="matrix(1 0 0 1 883.9433 907.7252)" class="st0 st1 st4"> </text>
<text transform="matrix(1 0 0 1 936.9433 907.7252)" class="st0 st1 st3">   </text>
<text transform="matrix(1 0 0 1 1453.8434 907.7252)" class="st0 st1">    (d) SENet50 - Neutral (incorrect: Sad)</text>
<text transform="matrix(1 0 0 1 75.5433 1390.1252)" class="st0 st1">     (e) SENet50 - Surprise (correct)</text>
<text transform="matrix(1 0 0 1 884.0433 1390.1252)" class="st0 st1 st4"> </text>
<text transform="matrix(1 0 0 1 936.9433 1390.1252)" class="st0 st1 st3">   </text>
<text transform="matrix(1 0 0 1 1453.8434 1390.1252)" class="st0 st1">  (f) SENet50 - Disgust (incorrect: Angry)</text>
<image style="overflow:visible;enable-background:new    ;" width="850" height="286" xlink:href="senet50-disgust-false-angry.png"  transform="matrix(1.2133 0 0 1.2133 1428.3313 977.9927)">
</image>
<image style="overflow:visible;enable-background:new    ;" width="850" height="286" xlink:href="senet50-neutral-false-sad.png"  transform="matrix(1.2201 0 0 1.2201 1432.8829 496.0258)">
</image>
<image style="overflow:visible;enable-background:new    ;" width="850" height="286" xlink:href="resnet50-neutral-true.png"  transform="matrix(1.2341 0 0 1.1869 0 496.0258)">
</image>
<image style="overflow:visible;enable-background:new    ;" width="851" height="285" xlink:href="resnet50-fear-true.png"  transform="matrix(1.2426 0 0 1.2426 -4.2288 0)">
</image>
<image style="overflow:visible;enable-background:new    ;" width="851" height="283" xlink:href="vgg16-fear-false-sad.png"  transform="matrix(1.2375 0 0 1.2375 1432.8829 1.9581)">
</image>
<image style="overflow:visible;" width="850" height="286" xlink:href="senet50-surprise-true.png"  transform="matrix(1.2282 0 0 1.2508 5 977.9927)">
</image>
</svg>
